<?xml version="1.0" encoding="utf-8"?>
<!-- Generator: Adobe Illustrator 21.0.0, SVG Export Plug-In . SVG Version: 6.00 Build 0)  -->
<svg version="1.1" id="Layer_1" xmlns="http://www.w3.org/2000/svg" xmlns:xlink="http://www.w3.org/1999/xlink" x="0px" y="0px"
	 viewBox="0 0 177 208" style="enable-background:new 0 0 177 208;" xml:space="preserve">
<g>
	<path d="M52.6,82.4v12.4c0,0.6-0.4,1-1,1s-1-0.4-1-1V82.4c0-0.6,0.4-1,1-1S52.6,81.9,52.6,82.4z M63.1,80.8c-0.6-0.1-1,0.3-1.1,0.9
		L60.3,94c-0.1,0.5,0.3,1,0.9,1.1c0,0,0.1,0,0.1,0c0.5,0,0.9-0.4,1-0.9l1.6-12.4C64,81.3,63.6,80.8,63.1,80.8z M40,80.8
		c-0.5,0.1-0.9,0.6-0.9,1.1l1.6,12.4c0.1,0.5,0.5,0.9,1,0.9c0,0,0.1,0,0.1,0c0.5-0.1,0.9-0.6,0.9-1.1l-1.6-12.4
		C41,81.1,40.5,80.7,40,80.8z M76.8,74.3l-5.5,22.2c0,0.4-0.2,0.7-0.5,1c-0.2,0.1-5.5,3.5-19.2,3.5s-19-3.4-19.2-3.5
		c-0.2-0.2-0.4-0.4-0.5-0.7l-5.6-22.4c-4-3.7-5.6-9-5.4-12.7c0.2-3.8,2.9-8.8,7.6-11.7c-0.7-1.8-1-4-1-4c-0.2-1.8-0.1-3.8,0.4-5.6
		c0.7-2.7,2.2-5.1,4.1-6.7c-1.8-3.3-1.2-7.5,1.6-10.2c0.2-0.2,0.5-0.4,0.7-0.6c-1.3-2.9-4.6-4.3-4.6-4.3c-0.6-0.3-0.9-1-0.7-1.6
		c0.3-0.6,1-0.9,1.6-0.7c0.2,0.1,4,1.7,5.8,5.4c3.1-1.2,6.7-0.5,9.1,2.1c0.8,0.9,1.4,1.9,1.8,3c1.1-0.7,2.1-1.6,2.9-2.7
		c0.7-1,1.1-2.6,1-3.8c0-0.4,0.1-0.8,0.5-1.1c0.3-0.2,0.8-0.3,1.2-0.1c3.1,1.4,7.6,3.6,10.9,7c2.9,3,4.2,7.8,3.4,12.5
		c6.3,2.8,13.5,8.2,15.2,14.1C84.1,58.4,82.2,68.4,76.8,74.3z M64.6,32.5c-0.4,0.6-1,1.2-1.8,1.6c-0.9,0.4-1.9,0.4-2.8,0.4
		c-0.8,0-1.5,0-2.1,0.3c-0.8,0.4-1.6,0.9-2,1.5c-0.4,0.4-0.6,0.9-0.9,1.5c-0.5,0.9-1,1.8-1.8,2.5c-1.5,1.3-3.6,1.4-5.6,0.4
		c-1.6-0.8-2.9-0.9-4.1,0c-0.9,0.7-1.6,1.6-2.5,2.8c-1.2,1.7-3.2,3.4-5.5,3.4c-0.7,0-1.3-0.2-2-0.5c-0.8-0.4-1.4-0.9-2-1.4
		c-0.6-0.5-1.1-0.9-1.7-1.1c0,0.5,0,1.1,0.1,1.6c0.1,0.8,0.5,2.8,1.1,3.8c7.9-0.2,21.9-2,33.7-10.6C65.1,36.9,65.1,34.7,64.6,32.5z
		 M33.9,32.2c2.1-1.3,4.5-2,6.7-2.7c1.6-0.5,3.1-1,4.5-1.6c-0.3-0.9-0.7-1.8-1.4-2.5c-2.3-2.4-6.1-2.5-8.6-0.2
		C33.3,27,32.8,29.9,33.9,32.2z M28.2,72.8C28.2,72.9,28.2,72.9,28.2,72.8c0.1,0.1,0.1,0.2,0.2,0.2c0.1,0.1,1.7,2.2,4.9,3
		c0.6,0.2,1.2,0.2,1.7,0.2c2.2,0,3.6-1.1,3.7-1.2c0,0,0,0,0,0l0,0c0.3-0.2,0.6-0.3,1-0.3c0.3,0,0.6,0.2,0.8,0.4
		c0.1,0.1,0.5,0.6,1.3,1.1c0,0,0,0,0,0c0.2,0.1,0.4,0.3,0.7,0.4c0.1,0,0.1,0.1,0.2,0.1c0.2,0.1,0.4,0.2,0.7,0.3
		c0.1,0,0.3,0.1,0.5,0.1c0.2,0.1,0.4,0.1,0.6,0.2c0.3,0.1,0.6,0.1,0.9,0.1c0.1,0,0.2,0,0.2,0c0.1,0,0.2,0,0.3,0
		c3.2,0.1,4.9-1.6,5-1.6c0.1-0.1,0.3-0.2,0.4-0.3c0,0,0,0,0,0c0.1,0,0.3-0.1,0.4-0.1c0.1,0,0.3,0,0.4,0.1c0,0,0,0,0,0
		c0.1,0.1,0.3,0.1,0.4,0.3c0.1,0.1,1.8,1.7,5,1.6c0.1,0,0.2,0,0.3,0c0.1,0,0.2,0,0.2,0c0.3,0,0.6-0.1,0.9-0.1c0.2,0,0.4-0.1,0.6-0.2
		c0.1,0,0.3-0.1,0.5-0.1c0.2-0.1,0.4-0.2,0.7-0.3c0.1,0,0.1-0.1,0.2-0.1c0.3-0.1,0.5-0.2,0.7-0.4c0,0,0,0,0,0c0.8-0.5,1.3-1,1.3-1.1
		c0.2-0.2,0.5-0.4,0.8-0.4c0.4-0.1,0.7,0.1,1,0.3l0,0c0.1,0.1,1.4,1.2,3.7,1.2c0.5,0,1.1-0.1,1.7-0.2c3.1-0.8,4.8-2.8,4.9-3
		c0,0,0,0,0.1-0.1c0,0,0,0,0-0.1c4.4-4.6,6.3-12.4,5.6-17.7c-0.7,0.4-1.3,0.9-1.7,1.5c-2.2,3-3.4,7-6.5,9.3c-2.9,2.2-7.3,2.6-10.5,1
		c-2.5-1.1-4.7-2.6-7.5-2.7c-1.9,0-3.6,0.5-5.1,1.7c-2.8,2-5.5,4.7-9.2,3.4c-2-0.7-2.9-1.8-4.7-2.8c-1.9-1.1-4.1-1.1-6,0
		c-1.9,1.1-3.6,1.1-4.7,0.9C25.3,69.5,26.5,71.3,28.2,72.8z M73.7,77c-0.9,0.5-1.9,1-3.2,1.3c-0.3,0.1-0.7,0.1-1,0.2c0,0,0,0-0.1,0
		c-0.1,0-0.1,0-0.2,0c-1,0.1-1.9,0.1-2.7-0.1c0,0-0.1,0-0.1,0c-0.2,0-0.5-0.1-0.7-0.2c0,0-0.1,0-0.1,0c-0.2-0.1-0.4-0.1-0.6-0.2
		c0,0,0,0-0.1,0c-0.4-0.2-0.8-0.3-1.1-0.5c-1.1,1-3.2,2.2-6,2.4c-0.2,0-0.4,0-0.7,0c-0.1,0-0.2,0-0.2,0c-0.1,0-0.2,0-0.3,0
		c-0.3,0-0.5,0-0.7-0.1c0,0-0.1,0-0.1,0c-2-0.3-3.4-1-4.2-1.6c-0.8,0.6-2.3,1.3-4.2,1.6c0,0-0.1,0-0.1,0c-0.2,0-0.5,0-0.7,0.1
		c-0.1,0-0.2,0-0.3,0c-0.1,0-0.2,0-0.2,0c-0.2,0-0.4,0-0.7,0c-2.8-0.2-4.9-1.4-6-2.4c-0.3,0.2-0.7,0.4-1.1,0.5c0,0,0,0-0.1,0
		c-0.2,0.1-0.4,0.1-0.6,0.2c0,0-0.1,0-0.1,0c-0.2,0.1-0.5,0.1-0.7,0.2c0,0-0.1,0-0.1,0c-0.8,0.1-1.7,0.2-2.7,0.1c-0.1,0-0.1,0-0.2,0
		c0,0,0,0-0.1,0c-0.3,0-0.7-0.1-1-0.2c-1.3-0.3-2.3-0.8-3.2-1.3l4.6,18.7c1.4,0.7,6.6,2.9,17.5,2.9c10.8,0,16-2.2,17.4-2.9L73.7,77z
		"/>
</g>
<g>
	<g>
		<path d="M131.1,121.5c-18.3,0-33.1,14.8-33.1,33.1c0,2.9,0.4,5.8,1.2,8.5l0,0l0.3,1l0,0l0.3,0.7l0,0c4.3,13.5,17.1,22.9,31.3,22.9
			c17.5,0,31.9-13.7,32.9-31.1l0,0V156c0-0.1,0-0.3,0-0.4c0-0.3,0-0.6,0-0.9C164.1,136.3,149.3,121.5,131.1,121.5z M131.1,144.7
			c5.5,0,9.9,4.5,9.9,9.9c0,5.5-4.5,9.9-9.9,9.9c-5.5,0-9.9-4.5-9.9-9.9C121.1,149.1,125.6,144.7,131.1,144.7z M131.1,185.9
			c-13.4,0-25.5-8.8-29.6-21.3c0.4,0,0.9-0.1,1.2-0.1h0.1c0.3,0,0.6,0,0.7,0s0.1,0,0.3,0c0.3,0,0.6,0,0.9,0c2.6,0.4,4.5,2.3,6.5,4.3
			c1.4,1.4,3,3,5,4c2.6,1.3,5.6,1.6,8.2,1.7c1,0,1.9,0.1,2.9,0.1c2,0,3.7-0.3,5-0.9c1-0.4,1.9-1,2.6-1.6c0.9-0.6,1.6-1.2,2.4-1.6
			c0.4-0.1,1-0.3,1.6-0.3c1,0,2,0.3,2.4,1.3c0.1,0.3,0.1,0.7,0.1,1.2c0,0.7,0,1.4,0.4,2c0,0.1,0.1,0.3,0.3,0.3
			c0.1,0.1,0.1,0.1,0.3,0.3c0.6,0.6,1.3,0.9,2.2,0.9c0,0,0,0,0.1,0l0,0l0,0c0.4,0,0.9,0,1.2-0.1c1.3-0.4,2.3-1.4,2.9-2.3
			c1.7-2.2,2.9-4.7,3.5-7.5c0.1-0.7,0.3-1.3,0.3-2c0.1-1.2,0.3-2.3,0.7-3.5c0.4-1.3,1.6-2.9,3.2-3c0.4,0,1,0,1.6,0
			c0.3,0,0.7,0,1,0.1c0.3,0,0.6,0,0.7,0s0.1,0,0.3,0c0.1,0,0.3,0,0.4,0s0.3,0,0.3,0c0.1,0,0.3,0,0.4-0.1c0.1,0,0.3-0.1,0.6-0.1
			c0.1,0,0.3,0,0.3-0.1h0.1C160.8,173.4,147.5,185.9,131.1,185.9z"/>
	</g>
</g>
</svg>
