<?xml version="1.0" encoding="utf-8"?>
<!-- Generator: Adobe Illustrator 21.0.0, SVG Export Plug-In . SVG Version: 6.00 Build 0)  -->
<svg version="1.1" id="Layer_1" xmlns="http://www.w3.org/2000/svg" xmlns:xlink="http://www.w3.org/1999/xlink" x="0px" y="0px"
	 viewBox="0 0 100 100" style="enable-background:new 0 0 100 100;" xml:space="preserve">
<path d="M46.8,5C23.5,5,5.2,24.3,5.2,48.9C5.2,74.3,23.9,95,46.8,95c11.5,0,23.5-5.1,32.9-14c9.6-9,15.1-20.7,15.1-32.1
	C94.8,25.9,71.9,5,46.8,5z M46.8,90c-20.2,0-36.6-18.4-36.6-41.1C10.2,27.1,26.3,10,46.8,10c22.1,0,43,18.9,43,38.9
	C89.8,69.7,68.5,90,46.8,90z"/>
<path d="M42.5,42.2c-2.6,0-4.6,2.3-4.6,5.3c0,2.9,1.9,4.9,4.6,4.9c2.7,0,4.7-2,4.7-4.9C47.2,44.5,45.1,42.2,42.5,42.2z"/>
<path d="M60.2,22.8c-0.3,0-0.6,0-0.9,0c-0.2,0-0.4,0-0.6,0c-1.1,0-2.8,0.2-4.3,1.6c-0.1,0.1-0.2,0.2-0.3,0.3c-0.8,0.8-2.2,2-2.2,4
	c0,2.1,1.5,3.7,2.3,4.4c1.4,1.4,2.9,2.1,4.4,2.1c2,0,3.3-1.3,4.1-2.1L63,33c1.1-1.1,1.6-2.5,1.6-4.3c0-0.2,0-0.4,0-0.5
	c0.1-1.1,0.1-2.9-1.2-4.2C62.3,22.8,60.7,22.8,60.2,22.8z"/>
<path d="M37.5,27.7c2.7,0,4.9-2.4,4.9-5.2c0-2.7-2-4.5-4.9-4.5c-2.9,0-4.9,1.9-4.9,4.5C32.6,25.4,34.8,27.7,37.5,27.7z"/>
<path d="M77.5,35c-2.7,0-4.9,2.2-4.9,5c0,2.9,2.2,5.2,4.9,5.2c2.8,0,5.4-2.5,5.4-5.2C82.9,37.3,80.4,35,77.5,35z"/>
<path d="M22.5,40.1c-2.7,0-4.8,2.1-4.8,4.9c0,2.8,2.1,5,4.8,5c2.8,0,5-2.2,5-5C27.5,42.3,25.3,40.1,22.5,40.1z"/>
<path d="M79.6,62.4c0-1,0-2.3-0.8-3.6c-0.6-1.1-1.5-1.9-2.7-2.6c-1-0.6-2.2-1.1-3.7-1.1c-1.4,0-2.7,0.3-3.8,0.9
	c-1.2,0.7-2.2,1.6-2.8,2.7c-0.7,1.2-1,2.5-1,3.8c0,1.5,0.7,2.7,1.2,3.6l0.1,0.1c0.8,1.3,1.9,2,2.8,2.5l0.2,0.1
	c0.8,0.5,1.9,1.1,3.4,1.1c1.2,0,2.5-0.1,3.8-0.8c1-0.6,1.9-1.5,2.7-2.9c0.7-1.2,0.7-2.5,0.7-3.4L79.6,62.4z"/>
<path d="M57.5,70.1c-2.6,0-5.4,2-5.4,4.9c0,2.7,2.6,5.3,5.4,5.3c2.8,0,5.4-2.6,5.4-5.3C62.9,72.1,60.1,70.1,57.5,70.1z"/>
<path d="M38,66.8c-0.8-0.8-2.2-2.2-4.2-2.2c-1.9,0-3.6,1.1-4.6,2.1c-1.2,1.2-2,3-2,4.6c0,1.9,1.4,3.1,2.2,3.7
	c0.1,0.1,0.3,0.2,0.4,0.3c0.1,0.1,0.2,0.2,0.3,0.3c0.7,0.7,1.9,2,3.8,2c2,0,3.1-1.2,3.9-2l0.3-0.3c0.7-0.7,1.9-1.9,1.9-4.1
	c0-1.8-0.6-3.2-1.7-4.3L38,66.8z"/>
</svg>
