<?xml version="1.0" encoding="utf-8"?>
<!-- Generator: Adobe Illustrator 21.0.0, SVG Export Plug-In . SVG Version: 6.00 Build 0)  -->
<svg version="1.1" id="Layer_1" xmlns="http://www.w3.org/2000/svg" xmlns:xlink="http://www.w3.org/1999/xlink" x="0px" y="0px"
	 viewBox="0 0 100 100" style="enable-background:new 0 0 100 100;" xml:space="preserve">
<g>
	<path d="M51,75.1v12.4c0,0.6-0.4,1-1,1s-1-0.4-1-1V75.1c0-0.6,0.4-1,1-1S51,74.5,51,75.1z M61.5,73.4c-0.5-0.1-1,0.3-1.1,0.9
		l-1.6,12.4c-0.1,0.5,0.3,1.1,0.9,1.1c0,0,0.1,0,0.1,0c0.5,0,0.9-0.4,1-0.9l1.6-12.4C62.5,74,62.1,73.5,61.5,73.4z M75.3,66.9
		l-5.5,22.2c0,0.4-0.2,0.7-0.5,1c-0.2,0.1-5.5,3.5-19.2,3.5c-13.7,0-19-3.4-19.2-3.5c-0.2-0.2-0.4-0.4-0.5-0.7l-5.6-22.5
		c-7.6-9.4-4.2-25.8,3.8-33.7c0,0,0,0,0,0c-0.3-1-0.5-2.1-0.5-3.3c0-4.7,2.9-7.9,8-8.9c0,0,0-0.1,0-0.1c0-5.9,3.8-8.2,6.3-9.7
		c2.4-1.5,2.6-1.8,2-3c-0.2-0.4-0.2-0.9,0.1-1.2c0.3-0.4,0.7-0.6,1.1-0.5C54,7.4,64,11.8,64,20.9c0,0.1,0,0.1,0,0.2
		c5.1,1.2,8,4.3,8,8.9c0,1.2-0.2,2.3-0.5,3.3C79.5,41.1,82.8,57.5,75.3,66.9z M50,69.3L50,69.3L50,69.3C50,69.3,50,69.3,50,69.3z
		 M38.4,20.9c0,2.8,4.9,4.8,11.6,4.8s11.6-2,11.6-4.8c0-8.2-10.2-11-14.5-11.9c0,2-1.9,3.2-3.5,4.2C41.2,14.7,38.4,16.3,38.4,20.9z
		 M30.5,29.9c0,2.5,0,10.1,19.5,10.1c10.8,0,17.1-2.3,18.9-6.9c0,0,0-0.1,0-0.1c0.4-1,0.6-2,0.6-3.2c0-4.2-3.2-5.9-6.2-6.6
		c-1.7,2.9-6.5,4.7-13.3,4.7c-6.8,0-11.6-1.8-13.3-4.7C33.7,23.9,30.5,25.6,30.5,29.9z M22.9,55.6c2.3,1.4,3.8,0.3,5.8-1.3
		c2.4-1.8,5.3-4.1,10.1-2.5c1.4,0.5,2.6,1.6,3.7,2.6c1,0.9,2,1.8,3,2.2c2.2,0.8,4.8,0.2,6.4-1.5c0.4-0.5,0.9-1.1,1.3-1.7
		c1.8-2.4,3.9-5.3,7.3-5.1c2.1,0.1,3.4,1,4.8,1.9c0.6,0.4,1.1,0.8,1.8,1.1c1.8,0.9,3.5,0.8,5.2-0.5c1.6-1.2,2.9-3.1,3.7-4.6
		c-1.1-4-3.1-7.8-5.7-10.6c-2.8,4.6-9.7,6.9-20.4,6.9c-10.8,0-17.6-2.3-20.4-6.9C25.1,40.5,22.3,48.4,22.9,55.6z M72.1,69.6
		c-0.9,0.5-1.9,1-3.2,1.3c-2.9,0.7-5.2-0.1-6.6-0.8c-1,0.9-3,2.2-6,2.4c-2.9,0.2-5.1-0.8-6.3-1.7c-1.1,0.8-3.1,1.7-5.6,1.7
		c-0.2,0-0.4,0-0.7,0c-2.8-0.2-4.9-1.4-6-2.4c-1.3,0.8-3.7,1.6-6.6,0.8c-1.3-0.3-2.3-0.8-3.2-1.3l4.6,18.7c1.4,0.7,6.6,2.9,17.5,2.9
		c10.9,0,16-2.2,17.4-2.9L72.1,69.6z M38.4,73.4c-0.5,0.1-0.9,0.6-0.9,1.1l1.6,12.4c0.1,0.5,0.5,0.9,1,0.9c0,0,0.1,0,0.1,0
		c0.5-0.1,0.9-0.6,0.9-1.1l-1.6-12.4C39.5,73.7,39,73.3,38.4,73.4z M43.7,19.9l1.9,0.8c0.1,0.1,0.3,0.1,0.4,0.1
		c0.4,0,0.8-0.2,0.9-0.6c0.2-0.5,0-1.1-0.5-1.3l-1.9-0.8c-0.5-0.2-1.1,0-1.3,0.5C43,19.1,43.2,19.7,43.7,19.9z M55.2,19.6
		c0.2,0,0.4-0.1,0.5-0.2l1.7-1.1c0.5-0.3,0.6-0.9,0.3-1.4c-0.3-0.5-0.9-0.6-1.4-0.3l-1.7,1.1c-0.5,0.3-0.6,0.9-0.3,1.4
		C54.6,19.5,54.9,19.6,55.2,19.6z M48.5,16.1c0.1,0,0.2,0,0.3,0l2-0.5c0.5-0.1,0.9-0.7,0.7-1.2c-0.1-0.5-0.7-0.9-1.2-0.7l-2,0.5
		c-0.5,0.1-0.9,0.7-0.7,1.2C47.6,15.8,48.1,16.1,48.5,16.1z M60.5,30.5l1.9,0.8c0.1,0.1,0.3,0.1,0.4,0.1c0.4,0,0.8-0.2,0.9-0.6
		c0.2-0.5,0-1.1-0.5-1.3l-1.9-0.8c-0.5-0.2-1.1,0-1.3,0.5C59.8,29.7,60,30.3,60.5,30.5z M36.4,31.2c0.2,0,0.4-0.1,0.5-0.2l1.7-1.1
		c0.5-0.3,0.6-0.9,0.3-1.4c-0.3-0.5-0.9-0.6-1.4-0.3l-1.7,1.1c-0.5,0.3-0.6,0.9-0.3,1.4C35.7,31,36.1,31.2,36.4,31.2z M52.8,33.6
		c0.1,0,0.2,0,0.3,0l2-0.5c0.5-0.1,0.9-0.7,0.7-1.2c-0.1-0.5-0.7-0.9-1.2-0.7l-2,0.5c-0.5,0.1-0.9,0.7-0.7,1.2
		C52,33.3,52.4,33.6,52.8,33.6z M44.2,33.7c0.1,0.4,0.5,0.7,1,0.7c0.1,0,0.2,0,0.3,0c0.5-0.1,0.8-0.7,0.7-1.2l-0.5-2
		c-0.1-0.5-0.7-0.8-1.2-0.7c-0.5,0.1-0.8,0.7-0.7,1.2L44.2,33.7z"/>
</g>
</svg>
